# xmcd
#
# Track frame offsets:
#  182
#  10492
#  21637
#  32155
#  44395
#  55207
#  65630
#  78685
#  90232
#  103455
#  115385
#  127015
#  143745
#  156190
#
# Disc length: 2206 seconds
#
# Revision: 0
# Processed by: cddbd v1.5.1PL2 Copyright (c) Steve Scherf et al.
# Submitted via: Collectorz.com_Music_Collector 6.10
#
DISCID=cb089c0e
DTITLE=Various Artist - Spotlite on Hull Records Vol. 1
DYEAR=1900
DGENRE=Doo Wop - Oldies - R&B - Rock and Roll
TTITLE0=The Heartbeats - Crazy For You
TTITLE1=The Elegants - True Love Affair (outtake)
TTITLE2=The Monotones - Dream
TTITLE3=Shep and The Limelites - Remember Baby (stereo)
TTITLE4=The Monotones - Book Of Love (outtake)
TTITLE5=Jackie and The Starlites - For All we Know
TTITLE6=The Avons - What Love Can Do
TTITLE7=Little Chip and The Chordells - A Little More Love
TTITLE8=The Beltones - I Talk To My Echo
TTITLE9=The Sparks - Danny Boy
TTITLE10=The Carouselles - Way Over There
TTITLE11=The Pastels - Oh Me Oh My
TTITLE12=The Legends - The Legend Of Love
TTITLE13=The Elegants - Goodnight
EXTD=
EXTT0=
EXTT1=
EXTT2=
EXTT3=
EXTT4=
EXTT5=
EXTT6=
EXTT7=
EXTT8=
EXTT9=
EXTT10=
EXTT11=
EXTT12=
EXTT13=
PLAYORDER=
